<svg width="200" height="118" viewBox="0 0 200 118" fill="none" xmlns="http://www.w3.org/2000/svg">
<path d="M122.271 25.2528C81.3169 -11.6629 49.6449 15.6831 38.7237 31.817C25.0723 29.3559 -0.241662 43.0565 1.04741 69.5532C2.68377 103.188 39.2716 107.017 55.1073 103.188C72.1444 126.815 99.8829 116.041 114.08 107.29C144.387 126.159 159.949 105.65 165.683 96.6254C206.638 91.7037 193.532 44.9427 168.961 46.5829C162.407 15.4093 137.288 19.2367 122.271 25.2528Z" fill="url(#paint0_linear_8360_97132)"/>
<path d="M126.875 19.1061C84.0284 -19.2074 50.8928 9.17407 39.467 25.9189C25.1846 23.3646 -1.29905 37.584 0.0495972 65.0841C1.76157 99.9928 40.0401 103.966 56.6076 99.9928C74.432 124.514 103.452 113.332 118.306 104.25C150.013 123.833 166.294 102.548 172.293 93.1814C215.14 88.0733 201.429 39.5416 175.722 41.2439C168.865 8.88986 142.586 12.8622 126.875 19.1061Z" fill="url(#paint1_linear_8360_97132)"/>
<defs>
<linearGradient id="paint0_linear_8360_97132" x1="-1.07998" y1="114.676" x2="95.1052" y2="-39.5045" gradientUnits="userSpaceOnUse">
<stop offset="0.203125" stop-color="#D91A21"/>
<stop offset="1" stop-color="#6F0000"/>
</linearGradient>
<linearGradient id="paint1_linear_8360_97132" x1="16.2819" y1="171.138" x2="-2.53647" y2="45.3116" gradientUnits="userSpaceOnUse">
<stop stop-color="#F9A51A"/>
<stop offset="0.339447" stop-color="#FBB612"/>
<stop offset="1" stop-color="#FFDD00"/>
</linearGradient>
</defs>
</svg>
