<svg width="24" height="24" viewBox="0 0 24 24" fill="none" xmlns="http://www.w3.org/2000/svg">
<path fill-rule="evenodd" clip-rule="evenodd" d="M22.5 2.5605L21.4395 1.5L14.1984 8.74114L15.2341 9.82639L18.8595 6.201C20.2412 7.81721 21.0002 9.8737 21 12C21.0039 13.7163 20.5159 15.3978 19.5937 16.8454C18.6715 18.2929 17.3537 19.4458 15.7966 20.1676C14.2394 20.8894 12.5079 21.1498 10.8073 20.9179C9.10671 20.6861 7.50817 19.9718 6.201 18.8595L8.88594 16.1746L7.84918 15.0903L1.5 21.4395L2.5605 22.5L5.14275 19.9177C7.14196 21.6668 9.73119 22.5906 12.386 22.5021C15.0408 22.4136 17.5628 21.3194 19.4411 19.4411C21.3194 17.5628 22.4136 15.0408 22.5021 12.386C22.5906 9.73119 21.6668 7.14196 19.9177 5.14275L22.5 2.5605Z" fill="black"/>
<path d="M4.25267 16.5634C3.2366 14.8465 2.82069 12.8404 3.07047 10.861C3.32025 8.8817 4.22151 7.04175 5.63225 5.6311C7.04299 4.22045 8.883 3.31929 10.8623 3.06963C12.8417 2.81998 14.8478 3.23601 16.5647 4.25218L17.6552 3.16168C15.6409 1.86839 13.2448 1.30299 10.8649 1.55938C8.4849 1.81576 6.26423 2.8785 4.57161 4.57112C2.87899 6.26375 1.81625 8.48441 1.55986 10.8644C1.30348 13.2443 1.86888 15.6404 3.16217 17.6547L4.25267 16.5634Z" fill="black"/>
<path d="M18 14.7V13.35L12.9474 9.975V6.2625C12.9474 5.99397 12.8476 5.73644 12.6699 5.54655C12.4922 5.35667 12.2513 5.25 12 5.25C11.7487 5.25 11.5078 5.35667 11.3301 5.54655C11.1524 5.73644 11.0526 5.99397 11.0526 6.2625V9.975L6 13.35V14.7L11.0526 13.0125V16.725L9.78947 17.7375V18.75L12 18.075L14.2105 18.75V17.7375L12.9474 16.725V13.0125L18 14.7Z" fill="black"/>
</svg>
