<svg width="29" height="15" viewBox="0 0 29 15" fill="none" xmlns="http://www.w3.org/2000/svg">
<path d="M23.2833 4L24.1 4L26.1417 6.94737L28.3875 6.94737C28.5499 6.94737 28.7057 7.00559 28.8206 7.10923C28.9355 7.21287 29 7.35343 29 7.5C29 7.64657 28.9355 7.78713 28.8206 7.89077C28.7057 7.99441 28.5499 8.05263 28.3875 8.05263L26.1417 8.05263L24.1 11L23.2833 11L24.3042 8.05263L22.0583 8.05263L21.4458 8.78947L20.8333 8.78947L21.2417 7.5L20.8333 6.21053L21.4458 6.21053L22.0583 6.94737L24.3042 6.94737L23.2833 4Z" fill="#333333"/>
<line x1="2" y1="7.5" x2="26" y2="7.5" stroke="#333333" stroke-dasharray="1 1"/>
<circle cx="1.5" cy="7.5" r="1.5" fill="#333333"/>
</svg>
