<svg width="24" height="24" viewBox="0 0 24 24" fill="none" xmlns="http://www.w3.org/2000/svg">
<path d="M21 6H3C2.73478 6 2.48043 6.10037 2.29289 6.27903C2.10536 6.45769 2 6.7 2 6.95266V10.7633H2.893C3.889 10.7633 4.813 11.4121 4.973 12.3485C5.02174 12.622 5.00726 12.9023 4.93056 13.1699C4.85387 13.4374 4.71681 13.6858 4.52894 13.8977C4.34108 14.1096 4.10694 14.2799 3.84287 14.3967C3.57879 14.5135 3.29115 14.574 3 14.574H2V18.3846C2 18.6373 2.10536 18.8796 2.29289 19.0582C2.48043 19.2369 2.73478 19.3373 3 19.3373H21C21.2652 19.3373 21.5196 19.2369 21.7071 19.0582C21.8946 18.8796 22 18.6373 22 18.3846V14.574H21C20.7089 14.574 20.4212 14.5135 20.1571 14.3967C19.8931 14.2799 19.6589 14.1096 19.4711 13.8977C19.2832 13.6858 19.1461 13.4374 19.0694 13.1699C18.9927 12.9023 18.9783 12.622 19.027 12.3485C19.187 11.4121 20.111 10.7633 21.107 10.7633H22V6.95266C22 6.7 21.8946 6.45769 21.7071 6.27903C21.5196 6.10037 21.2652 6 21 6ZM9 9.81065C9.26522 9.81065 9.51957 9.91102 9.70711 10.0897C9.89464 10.2683 10 10.5107 10 10.7633C10 11.016 9.89464 11.2583 9.70711 11.4369C9.51957 11.6156 9.26522 11.716 9 11.716C8.73478 11.716 8.48043 11.6156 8.29289 11.4369C8.10536 11.2583 8 11.016 8 10.7633C8 10.5107 8.10536 10.2683 8.29289 10.0897C8.48043 9.91102 8.73478 9.81065 9 9.81065ZM8.2 15.9077L14.2 8.28639L15.8 9.42959L9.8 17.0509L8.2 15.9077ZM15 15.5266C14.7348 15.5266 14.4804 15.4263 14.2929 15.2476C14.1054 15.0689 14 14.8266 14 14.574C14 14.3213 14.1054 14.079 14.2929 13.9003C14.4804 13.7217 14.7348 13.6213 15 13.6213C15.2652 13.6213 15.5196 13.7217 15.7071 13.9003C15.8946 14.079 16 14.3213 16 14.574C16 14.8266 15.8946 15.0689 15.7071 15.2476C15.5196 15.4263 15.2652 15.5266 15 15.5266Z" fill="black"/>
</svg>
