<svg width="29" height="15" viewBox="0 0 29 15" fill="none" xmlns="http://www.w3.org/2000/svg">
<path d="M23.2833 -7.37149e-08L24.1 -1.08597e-07L26.1417 2.94737L28.3875 2.94737C28.5499 2.94737 28.7057 3.00559 28.8206 3.10923C28.9355 3.21287 29 3.35343 29 3.5C29 3.64657 28.9355 3.78713 28.8206 3.89077C28.7057 3.99441 28.5499 4.05263 28.3875 4.05263L26.1417 4.05263L24.1 7L23.2833 7L24.3042 4.05263L22.0583 4.05263L21.4458 4.78947L20.8333 4.78947L21.2417 3.5L20.8333 2.21053L21.4458 2.21053L22.0583 2.94737L24.3042 2.94737L23.2833 -7.37149e-08Z" fill="#333333"/>
<line x1="1" y1="3.5" x2="20" y2="3.5" stroke="#333333" stroke-dasharray="1 1"/>
<circle cx="1.5" cy="3.5" r="1.5" fill="#333333"/>
<path d="M5.71667 15L4.9 15L2.85833 12.0526L0.6125 12.0526C0.450055 12.0526 0.294263 11.9944 0.179397 11.8908C0.0645311 11.7871 0 11.6466 0 11.5C0 11.3534 0.0645311 11.2129 0.179397 11.1092C0.294263 11.0056 0.450055 10.9474 0.6125 10.9474L2.85833 10.9474L4.9 8L5.71667 8L4.69583 10.9474L6.94167 10.9474L7.55417 10.2105L8.16666 10.2105L7.75833 11.5L8.16666 12.7895L7.55417 12.7895L6.94167 12.0526L4.69583 12.0526L5.71667 15Z" fill="#333333"/>
<line x1="9" y1="11.5" x2="28" y2="11.5" stroke="#333333" stroke-dasharray="1 1"/>
<circle cx="27.5" cy="11.5" r="1.5" fill="#333333"/>
</svg>
