<svg width="24" height="24" viewBox="0 0 24 24" fill="none" xmlns="http://www.w3.org/2000/svg">
<path d="M9.66531 5.6752C9.66531 4.30827 10.7573 3.2002 12.1044 3.2002C13.4516 3.2002 14.5436 4.30827 14.5436 5.6752C14.5436 7.04208 13.4516 8.1502 12.1044 8.1502C10.7573 8.1502 9.66531 7.04208 9.66531 5.6752ZM18.2913 5.72239C17.8679 5.29281 17.1815 5.29281 16.7582 5.72239L13.8235 8.70019H10.3853L7.45068 5.72239C7.02735 5.29281 6.34094 5.29281 5.91762 5.72239C5.49426 6.15198 5.49426 6.84845 5.91762 7.27803L9.12328 10.5308V19.7002C9.12328 20.3077 9.60864 20.8002 10.2073 20.8002H10.7494C11.3481 20.8002 11.8334 20.3077 11.8334 19.7002V15.8502H12.3755V19.7002C12.3755 20.3077 12.8608 20.8002 13.4595 20.8002H14.0015C14.6003 20.8002 15.0856 20.3077 15.0856 19.7002V10.5308L18.2913 7.278C18.7146 6.84841 18.7146 6.15198 18.2913 5.72239Z" fill="#939598"/>
</svg>
