<svg width="24" height="24" viewBox="0 0 24 24" fill="none" xmlns="http://www.w3.org/2000/svg">
<path d="M7.2 1.56283L9.6 1.56283L15.6 10.3152L22.2 10.3152C22.6774 10.3152 23.1352 10.4881 23.4728 10.7958C23.8104 11.1036 24 11.521 24 11.9562C24 12.3915 23.8104 12.8089 23.4728 13.1166C23.1352 13.4244 22.6774 13.5973 22.2 13.5973L15.6 13.5973L9.6 22.3496L7.2 22.3496L10.2 13.5973L3.6 13.5973L1.8 15.7854L1.59677e-06 15.7854L1.2 11.9562L1.23442e-06 8.12707L1.8 8.12707L3.6 10.3152L10.2 10.3152L7.2 1.56283Z" fill="#3C3C3C"/>
</svg>
