<svg width="24" height="24" viewBox="0 0 24 24" fill="none" xmlns="http://www.w3.org/2000/svg">
<path d="M4.93206 4.28613C4.07958 4.28613 3.26201 4.62478 2.65922 5.22758C2.05642 5.83037 1.71777 6.64794 1.71777 7.50042V8.14328H22.2858V7.50042C22.2858 6.64794 21.9471 5.83037 21.3443 5.22758C20.7415 4.62478 19.924 4.28613 19.0715 4.28613H4.93292H4.93206ZM1.71777 16.5004V9.42899H22.2858V16.5004C22.2858 17.3529 21.9471 18.1705 21.3443 18.7733C20.7415 19.3761 19.924 19.7147 19.0715 19.7147H4.93292C4.08043 19.7147 3.26287 19.3761 2.66007 18.7733C2.05728 18.1705 1.71863 17.3529 1.71863 16.5004H1.71777ZM15.6429 14.1433C15.4724 14.1433 15.3089 14.211 15.1883 14.3316C15.0678 14.4521 15.0001 14.6156 15.0001 14.7861C15.0001 14.9566 15.0678 15.1201 15.1883 15.2407C15.3089 15.3613 15.4724 15.429 15.6429 15.429H18.6429C18.8134 15.429 18.9769 15.3613 19.0975 15.2407C19.218 15.1201 19.2858 14.9566 19.2858 14.7861C19.2858 14.6156 19.218 14.4521 19.0975 14.3316C18.9769 14.211 18.8134 14.1433 18.6429 14.1433H15.6429Z" fill="black"/>
</svg>
