<svg width="7" height="6" viewBox="0 0 7 6" fill="none" xmlns="http://www.w3.org/2000/svg">
<path d="M3.50008 5.56227C1.56712 5.56227 0.000140667 4.31711 0.000140667 2.78114C0.000140667 1.24516 1.56712 0 3.50008 0C5.43303 0 7 1.24516 7 2.78114C7 4.31711 5.43303 5.56227 3.50008 5.56227Z" fill="#E8FAFF"/>
<path d="M2.6677 0.0830078C2.09781 0.576909 1.74573 1.23545 1.74573 1.95866C1.74573 3.49328 3.31219 4.73979 5.24566 4.73979C5.5321 4.73979 5.81257 4.7104 6.07812 4.65748C5.4396 5.21312 4.52061 5.56296 3.50017 5.56296C1.5667 5.56296 0.00023365 4.31645 0.00023365 2.78183C0.00023365 1.47358 1.13704 0.379937 2.6677 0.0830078Z" fill="#CAF2FC"/>
</svg>
