<svg width="80" height="80" viewBox="0 0 80 80" fill="none" xmlns="http://www.w3.org/2000/svg">
<path d="M39.9999 4.44434C32.9677 4.44434 26.0934 6.52963 20.2463 10.4365C14.3992 14.3434 9.84197 19.8964 7.15086 26.3934C4.45974 32.8903 3.75562 40.0393 5.12754 46.9364C6.49946 53.8335 9.8858 60.1689 14.8583 65.1415C19.8309 70.114 26.1663 73.5004 33.0634 74.8723C39.9605 76.2442 47.1095 75.5401 53.6064 72.849C60.1034 70.1578 65.6564 65.6006 69.5633 59.7535C73.4702 53.9064 75.5555 47.0321 75.5555 39.9999C75.5555 30.57 71.8094 21.5263 65.1415 14.8583C58.4735 8.19036 49.4298 4.44434 39.9999 4.44434ZM39.9999 71.111C33.8467 71.111 27.8317 69.2864 22.7155 65.8678C17.5993 62.4493 13.6117 57.5904 11.257 51.9056C8.90226 46.2208 8.28616 39.9654 9.48659 33.9304C10.687 27.8955 13.6501 22.352 18.001 18.001C22.352 13.65 27.8955 10.687 33.9304 9.48657C39.9654 8.28614 46.2208 8.90225 51.9056 11.257C57.5904 13.6117 62.4493 17.5993 65.8679 22.7155C69.2864 27.8317 71.111 33.8467 71.111 39.9999C71.111 48.2511 67.8333 56.1643 61.9988 61.9988C56.1643 67.8332 48.2511 71.111 39.9999 71.111Z" fill="#27AE60"/>
<path d="M62.2221 26.8884C61.8057 26.4745 61.2425 26.2422 60.6554 26.2422C60.0683 26.2422 59.5051 26.4745 59.0887 26.8884L34.4221 51.4439L21.0887 38.1106C20.6821 37.6715 20.1176 37.412 19.5196 37.3891C18.9216 37.3661 18.3389 37.5817 17.8998 37.9884C17.4608 38.3951 17.2012 38.9595 17.1783 39.5575C17.1554 40.1556 17.371 40.7382 17.7776 41.1773L34.4221 57.7773L62.2221 30.044C62.4304 29.8374 62.5957 29.5916 62.7085 29.3208C62.8213 29.05 62.8794 28.7595 62.8794 28.4662C62.8794 28.1728 62.8213 27.8824 62.7085 27.6116C62.5957 27.3408 62.4304 27.095 62.2221 26.8884Z" fill="#27AE60"/>
</svg>
