<svg width="19" height="18" viewBox="0 0 19 18" fill="none" xmlns="http://www.w3.org/2000/svg">
<path d="M2.69756 4.46204C2.69756 4.46204 1.76385 4.53375 1.63936 4.73766C1.51341 4.94157 1.50618 5.25516 1.50618 5.59969C1.50618 5.94563 1.4917 6.73875 1.4917 6.73875L1.71463 7.20422C1.71463 7.20422 1.75661 13.1372 1.75661 13.3214C1.75661 13.5042 1.75661 13.7278 2.02876 13.8698C2.30091 14.0119 9.2176 17.2575 9.43329 17.3447C9.759 17.4755 9.9139 17.4263 9.9139 17.4263L17.5993 4.94016C17.5993 4.94016 17.5746 4.59844 17.2547 4.51688C17.0709 4.47188 2.69756 4.46204 2.69756 4.46204Z" fill="#F5B03E"/>
<path d="M9.83141 8.56686C9.71415 8.88045 9.76772 12.1233 9.78798 14.4815C9.80825 16.8384 9.72573 17.3264 9.78798 17.408C9.85023 17.4895 10.0196 17.4108 10.4988 17.204C11.389 16.8215 15.6653 14.7656 15.9794 14.5828C16.2935 14.4 17.0608 14.0217 17.1867 13.8178C17.3127 13.6139 17.3807 11.7169 17.4227 10.1939C17.4647 8.66951 17.5066 7.4503 17.5066 7.4503L17.6948 6.90186C17.6948 6.90186 17.6543 5.41967 17.6471 5.25655C17.634 4.98655 17.6036 4.84733 17.5327 4.88108C17.4314 4.92748 16.586 5.60108 14.348 6.65858C12.9423 7.32092 9.91248 8.3503 9.83141 8.56686Z" fill="#E07F14"/>
<path d="M9.85181 1.57641C9.225 1.54828 7.50958 2.51156 5.85641 3.03891C4.20324 3.56625 1.70756 4.62656 1.68584 4.68844C1.66558 4.74891 2.69048 5.19469 3.3448 5.49985C4.12217 5.86125 7.08977 7.22672 7.63263 7.45031C8.17693 7.67391 9.47399 8.19703 9.68244 8.18157C9.97486 8.16188 12.7369 7.10438 14.1382 6.45469C15.5395 5.805 17.2911 4.79813 17.3142 4.55344C17.3244 4.44375 14.7375 3.50578 13.4477 2.93906C10.9578 1.8436 10.3107 1.5975 9.85181 1.57641Z" fill="#FDD717"/>
<path d="M1.49889 6.99893C1.5206 7.26331 1.6697 7.35752 2.04898 7.51784C2.42825 7.67815 9.59826 11.2964 9.76329 11.2964C9.92832 11.2964 9.97754 10.7227 9.79659 10.7381C9.69815 10.7466 7.34289 9.65956 5.14252 8.57393C3.2751 7.65424 1.4873 6.73596 1.4873 6.73596L1.49889 6.99893Z" fill="#E37D14"/>
<path d="M17.6963 6.88916C17.6963 6.88916 10.0399 10.672 9.96465 10.7085C9.88937 10.7451 9.76922 10.7324 9.76922 10.7324L9.76343 11.2963C9.76343 11.2963 9.83436 11.3118 9.91398 11.2879C9.9603 11.2738 17.4748 7.49525 17.5081 7.484C17.5414 7.47275 17.6862 7.38838 17.7166 7.20979C17.7427 7.06635 17.6963 6.88916 17.6963 6.88916Z" fill="#BA5E0D"/>
<path d="M4.50123 13.6997L5.99951 15.8653L6.65527 16.0832C6.65527 16.0832 6.70884 13.7207 6.73055 11.97C6.76095 9.412 6.74937 7.07903 6.78701 6.94684C6.84925 6.72325 9.76329 5.80497 9.76329 5.80497C9.76329 5.80497 13.0552 6.80762 13.1594 7.03122C13.2057 7.12965 13.1695 8.78622 13.1594 10.717C13.1464 13.1554 13.1507 15.9707 13.1507 15.9707C13.1507 15.9707 13.4909 15.9693 13.5314 15.847C13.5734 15.7247 13.7413 14.7811 13.7413 14.7811L15.0181 6.51372L15.6666 5.7009L14.7662 4.0359L11.0719 2.26965L9.80238 2.54668L8.4286 2.34278L4.07129 5.3845L4.5794 6.38575L5.82579 7.00309L4.50123 13.6997Z" fill="#AF0F1B"/>
<path d="M13.5374 6.94551C13.4578 7.11567 13.5041 15.8836 13.5041 15.8836C13.5041 15.8836 13.9022 15.6699 14.4147 15.4308C14.9242 15.1932 15.2905 15.0455 15.3223 14.9218C15.3542 14.798 15.4106 6.12708 15.4106 6.12708L13.5374 6.94551Z" fill="#DC0D28"/>
<path d="M6.30932 6.76409C6.35709 6.81472 6.27892 15.9132 6.18193 15.9342C6.10521 15.9525 4.36084 15.196 4.36084 15.1186C4.36084 15.0413 4.50126 6.34644 4.50126 6.34644C4.50126 6.34644 6.16746 6.6094 6.30932 6.76409Z" fill="#FF2A23"/>
<path d="M9.76643 2.00391C9.28437 2.00391 8.75165 2.1375 8.59676 2.52984C8.44186 2.92219 8.40712 3.50578 8.40712 3.94172C8.40712 4.35938 8.33764 5.42812 9.6622 5.41125C10.9868 5.39437 11.0258 4.91766 11.0461 3.86578C11.0635 2.98828 10.9433 2.56219 10.8232 2.37938C10.7161 2.21484 10.3599 2.00391 9.76643 2.00391Z" fill="#FF2A23"/>
<path d="M9.00052 4.17518C9.30162 4.19206 9.43046 3.5494 9.66207 3.19784C9.89369 2.84768 10.1354 2.61284 10.0486 2.43003C9.97765 2.27815 9.34794 2.22893 9.00775 2.68878C8.7689 3.01362 8.72692 4.15971 9.00052 4.17518Z" fill="#FCC9D2"/>
<path d="M10.939 2.30902C10.939 2.30902 11.366 2.73089 11.4775 3.55777C11.5889 4.38464 11.4601 5.0273 11.4601 5.0273C11.4601 5.0273 13.5823 4.96542 14.3148 5.10183C15.0371 5.23823 15.289 5.54761 15.289 5.77261C15.289 5.99761 14.8142 6.17902 14.3322 6.14527C13.8501 6.11152 13.5244 6.0862 13.4636 6.20433C13.4028 6.32245 13.4897 6.50527 14.1599 6.55449C14.8301 6.60511 15.6046 6.5123 15.8449 5.7023C16.0852 4.8923 16.0939 3.48886 16.0085 2.47777C15.9231 1.46667 15.7349 0.888704 15.2688 0.669329C14.778 0.440111 13.549 0.402142 12.388 1.03636C11.227 1.67058 10.939 2.30902 10.939 2.30902Z" fill="#FF2A23"/>
<path d="M13.3433 1.34723C13.1927 1.1588 12.7078 1.16442 12.4486 1.45552C12.1736 1.76489 12.1128 2.94192 12.466 3.00942C12.8655 3.08536 12.7932 2.44973 13.0856 2.05739C13.3722 1.67348 13.4895 1.53145 13.3433 1.34723Z" fill="#FCC9D2"/>
<path d="M8.48515 2.34984C8.48515 2.34984 6.85948 0.509059 5.0022 0.537184C3.88465 0.554059 3.60091 1.17984 3.54011 1.43859C3.47931 1.69734 3.01608 4.27078 3.63421 5.66437C4.25234 7.05797 5.53492 6.69656 5.73614 6.65156C5.99381 6.5925 6.54246 6.40969 6.49034 6.21703C6.43823 6.02437 4.61569 6.71765 4.59832 5.92453C4.58095 5.1314 5.88814 5.04703 6.49034 5.03015C7.09255 5.01328 8.1247 5.14687 8.1247 5.14687C8.1247 5.14687 7.94374 4.1864 8.0639 3.50156C8.18405 2.81672 8.48515 2.34984 8.48515 2.34984Z" fill="#FF2A23"/>
<path d="M4.50419 1.20517C4.27257 1.43861 4.17703 2.78439 4.32324 3.45236C4.46945 4.12033 4.59828 4.40439 4.89939 4.34674C5.15127 4.29752 5.30327 2.98689 5.42342 2.52564C5.55226 2.03345 5.87074 1.51033 5.7419 1.28111C5.54502 0.929549 4.74594 0.961892 4.50419 1.20517Z" fill="#FCC9D2"/>
</svg>
