<svg width="24" height="24" viewBox="0 0 24 24" fill="none" xmlns="http://www.w3.org/2000/svg">
<path d="M12.16 1.59961C12.7905 1.59961 13.3951 1.8431 13.8409 2.27652C14.2867 2.70994 14.5371 3.29778 14.5371 3.91072C14.5371 4.52367 14.2867 5.11151 13.8409 5.54492C13.3951 5.97834 12.7905 6.22183 12.16 6.22183C11.5295 6.22183 10.9249 5.97834 10.4791 5.54492C10.0333 5.11151 9.78286 4.52367 9.78286 3.91072C9.78286 3.29778 10.0333 2.70994 10.4791 2.27652C10.9249 1.8431 11.5295 1.59961 12.16 1.59961ZM10.3771 7.37739H13.9429C14.5733 7.37739 15.178 7.62088 15.6238 8.0543C16.0696 8.48771 16.32 9.07555 16.32 9.6885V16.0441H14.5371V22.3996H9.78286V16.0441H8V9.6885C8 9.07555 8.25045 8.48771 8.69625 8.0543C9.14205 7.62088 9.74669 7.37739 10.3771 7.37739Z" fill="#939598"/>
</svg>
