<svg width="267" height="48" viewBox="0 0 267 48" fill="none" xmlns="http://www.w3.org/2000/svg">
<path d="M63.8425 24.0072H46.8497C46.6909 27.6619 48.1202 30.3632 52.4081 30.3632C55.4256 30.3632 58.443 29.4098 60.0311 28.7742L60.8251 34.0179C58.443 35.1302 54.7903 36.0836 50.5024 36.0836C43.1971 36.0836 38.9092 31.9522 38.9092 24.9606C38.9092 20.6703 40.3385 15.9033 42.8795 12.5665C45.5793 8.59397 49.8672 6.21048 55.1079 6.21048C61.4604 6.21048 65.113 9.86516 65.113 16.38C65.113 17.969 64.6366 21.4648 63.8425 24.0072ZM54.1551 11.1364C51.7729 11.1364 49.7083 12.7254 48.279 15.5855C47.6438 16.8567 47.6438 17.1745 47.1674 18.6046H57.1725C57.3313 17.8101 57.6489 16.38 57.6489 15.4266C57.8077 12.5665 56.5372 11.1364 54.1551 11.1364Z" fill="white"/>
<path d="M11.1168 44.0271H3.49385L0 7.00354H8.25818L9.68748 32.1096L21.2807 7.00354H29.6977L11.1168 44.0271Z" fill="white"/>
<path d="M81.9472 12.4066H77.5005L74.3243 27.502C74.1655 27.9787 73.6891 30.5211 76.3889 30.68C77.1829 30.68 78.2946 30.5211 78.771 30.3622C78.771 30.3622 77.5005 36.2415 71.6245 36.2415C67.1778 36.2415 65.1133 32.9046 66.0661 27.8198L71.4657 2.5548C71.4657 2.5548 74.4831 -0.782083 80.2003 0.171313C79.2475 4.93829 78.771 7.00398 78.771 7.00398H83.2177L81.9472 12.4066Z" fill="white"/>
<path d="M137.214 12.4064H132.767L129.591 27.5018C129.432 27.9785 128.956 30.5209 131.655 30.6798C132.449 30.6798 133.561 30.5209 134.038 30.362C134.038 30.362 132.767 36.2413 126.891 36.2413C122.444 36.2413 120.38 32.9044 121.333 27.8196L126.573 2.8724C126.573 2.8724 129.591 -0.464486 135.308 0.48891C134.355 5.25589 133.879 7.32158 133.879 7.32158H138.325L137.214 12.4064Z" fill="white"/>
<path d="M119.109 24.0072H102.116C101.957 27.6619 103.386 30.3632 107.674 30.3632C110.692 30.3632 113.709 29.4098 115.297 28.7742L116.091 34.0179C113.709 35.1302 110.056 36.0836 105.768 36.0836C98.4631 36.0836 94.334 31.9522 94.334 24.9606C94.334 20.6703 95.7633 15.9033 98.1454 12.5665C101.004 8.59397 105.133 6.21048 110.374 6.21048C116.726 6.21048 120.379 9.86516 120.379 16.38C120.379 17.969 119.903 21.4648 119.109 24.0072ZM109.421 11.1364C107.039 11.1364 104.974 12.7254 103.545 15.5855C102.91 16.8567 102.91 17.1745 102.433 18.6046H112.438C112.597 17.8101 112.915 16.38 112.915 15.4266C113.074 12.5665 111.644 11.1364 109.421 11.1364Z" fill="white"/>
<path d="M197.084 12.4077C195.179 11.6132 192.955 11.6132 191.526 12.2488L186.603 35.7659H178.345L184.221 8.59413C187.715 6.68734 194.067 5.57504 198.99 6.52844L197.084 12.4077Z" fill="white"/>
<path d="M157.063 44.0271L157.222 35.7643H145.946L141.341 44.0271H133.241L155.475 7.00354H163.892L165.321 44.0271H157.063ZM157.38 15.2663L148.805 30.5206H157.222L157.38 15.2663Z" fill="white"/>
<path d="M74.1639 47.9997C66.8586 47.9997 62.7295 43.2327 63.3648 38.1479C67.0174 42.2793 73.8463 42.4382 77.8166 38.7835C79.2459 37.5123 80.5164 35.4466 81.4693 30.5207C83.2162 22.0991 86.3924 6.84473 86.3924 6.84473H94.6506L88.9334 33.8576C87.1865 42.5971 81.6281 47.9997 74.1639 47.9997Z" fill="white"/>
<path d="M33.3494 35.7643H25.25L31.2848 7.00354H39.3842L33.3494 35.7643Z" fill="white"/>
<path d="M174.692 35.7643H166.434L172.468 7.00354H180.727L174.692 35.7643Z" fill="white"/>
<path d="M193.432 36.083C192.003 36.083 191.05 35.1296 191.05 33.8584C191.05 32.1105 192.638 30.5215 194.385 30.5215C195.814 30.5215 196.767 31.4749 196.767 32.7461C196.926 34.494 195.179 36.083 193.432 36.083Z" fill="white"/>
<path d="M214.078 18.6029C213.601 18.2851 212.807 17.8084 211.854 17.8084C210.266 17.8084 208.837 18.7618 207.725 20.6686C206.614 22.4165 205.978 25.2767 205.978 27.3424C205.978 30.0437 207.09 31.3149 208.837 31.3149C209.949 31.3149 211.06 30.9971 211.696 30.5204L212.172 34.3339C211.219 35.2873 209.313 35.9229 206.772 35.9229C202.643 35.9229 199.626 32.7449 199.626 27.6602C199.626 24.4822 200.896 20.6686 202.643 18.1262C204.708 15.1071 207.884 13.677 210.902 13.677C213.284 13.677 215.348 14.6304 215.984 15.266L214.078 18.6029Z" fill="white"/>
<path d="M230.118 31.3157C228.212 34.1759 225.036 36.0827 221.065 36.0827C215.983 36.0827 213.442 32.9047 213.442 28.1377C213.442 24.9598 214.554 21.1462 216.301 18.6038C218.366 15.5847 221.383 13.8368 225.353 13.8368C230.435 13.8368 233.135 17.0148 233.135 21.6229C233.135 24.8009 231.865 28.7733 230.118 31.3157ZM224.877 17.6504C223.289 17.6504 222.018 18.9216 221.224 20.8284C220.271 22.8941 219.477 26.5487 219.477 28.7733C219.477 30.6801 219.954 31.7924 221.701 31.7924C223.448 31.7924 224.559 30.6801 225.353 28.7733C226.306 26.7076 227.1 23.053 227.1 20.8284C227.1 18.9216 226.465 17.6504 224.877 17.6504Z" fill="white"/>
<path d="M265.85 20.8284L262.832 35.7649H256.639L259.815 20.5106C259.815 20.1928 259.974 20.0339 259.974 19.7161C259.974 18.4449 259.18 17.6504 257.433 17.6504C256.321 17.6504 255.209 18.1271 254.415 18.7627L250.921 35.7649H244.728L247.904 20.5106C247.904 20.1928 248.063 20.0339 248.063 19.7161C248.063 18.4449 247.11 17.6504 245.204 17.6504C244.251 17.6504 243.299 17.8093 242.504 18.1271L238.852 35.7649H232.658L236.946 15.4258C239.487 14.3135 242.504 13.8368 245.998 13.8368C248.857 13.8368 251.239 14.7902 252.192 16.0614C253.621 14.9491 256.321 13.8368 259.974 13.8368C264.42 13.8368 266.485 16.0614 266.485 19.2394C266.009 19.875 266.009 20.3517 265.85 20.8284Z" fill="white"/>
</svg>
